<svg xmlns="http://www.w3.org/2000/svg" width="1254" height="1254" viewBox="0 0 1254 1254" role="img" aria-labelledby="title desc">
  <title id="title">RaceSweet logo</title>
  <desc id="desc">Flat SVG vector recreation of the RaceSweet logo: rounded red-orange app tile, black OK-hand icon with checkered racing detail, cream heart stopwatch, and RaceSweet wordmark.</desc>
  <rect x="9" y="8" width="1236" height="1238" rx="236" fill="#f45a43"/>
  <path d="M 758.0 587.0 L 749.0 586.0 L 716.0 613.0 L 698.0 616.0 L 690.0 629.0 L 694.0 644.0 L 707.0 651.0 L 720.0 648.0 L 727.0 639.0 L 727.0 627.0 L 759.0 593.0 Z
        M 680.0 473.0 L 673.0 479.0 L 672.0 496.0 L 678.0 504.0 L 691.0 505.0 L 691.0 523.0 L 655.0 535.0 L 623.0 561.0 L 612.0 577.0 L 603.0 599.0 L 599.0 623.0 L 600.0 642.0 L 607.0 668.0 L 629.0 703.0 L 699.0 767.0 L 711.0 772.0 L 790.0 702.0 L 811.0 668.0 L 818.0 642.0 L 818.0 612.0 L 811.0 587.0 L 796.0 562.0 L 804.0 554.0 L 815.0 555.0 L 823.0 547.0 L 824.0 539.0 L 795.0 512.0 L 788.0 512.0 L 779.0 521.0 L 781.0 534.0 L 774.0 542.0 L 755.0 531.0 L 731.0 524.0 L 729.0 506.0 L 741.0 504.0 L 747.0 498.0 L 747.0 480.0 L 741.0 473.0 Z
        M 673.0 559.0 L 693.0 558.0 L 707.0 564.0 L 725.0 558.0 L 751.0 561.0 L 776.0 581.0 L 788.0 607.0 L 789.0 630.0 L 779.0 657.0 L 762.0 677.0 L 711.0 724.0 L 698.0 718.0 L 648.0 669.0 L 639.0 657.0 L 630.0 634.0 L 630.0 608.0 L 638.0 587.0 L 655.0 568.0 Z
        M 572.0 88.0 L 549.0 90.0 L 528.0 106.0 L 402.0 311.0 L 440.0 183.0 L 441.0 158.0 L 429.0 139.0 L 409.0 131.0 L 390.0 134.0 L 371.0 150.0 L 347.0 215.0 L 280.0 431.0 L 266.0 493.0 L 259.0 544.0 L 258.0 621.0 L 266.0 675.0 L 285.0 734.0 L 308.0 777.0 L 352.0 829.0 L 391.0 858.0 L 446.0 882.0 L 489.0 890.0 L 533.0 890.0 L 581.0 882.0 L 624.0 869.0 L 679.0 846.0 L 686.0 846.0 L 721.0 860.0 L 738.0 858.0 L 748.0 853.0 L 900.0 706.0 L 936.0 664.0 L 959.0 630.0 L 974.0 600.0 L 984.0 571.0 L 990.0 538.0 L 990.0 494.0 L 976.0 442.0 L 949.0 400.0 L 909.0 368.0 L 862.0 352.0 L 812.0 351.0 L 767.0 363.0 L 745.0 374.0 L 718.0 394.0 L 697.0 373.0 L 670.0 353.0 L 640.0 337.0 L 604.0 325.0 L 720.0 166.0 L 723.0 153.0 L 720.0 135.0 L 710.0 121.0 L 698.0 114.0 L 684.0 112.0 L 670.0 115.0 L 647.0 133.0 L 500.0 313.0 L 600.0 137.0 L 601.0 117.0 L 595.0 103.0 L 584.0 93.0 Z
        M 385.0 695.0 L 420.0 770.0 L 361.0 784.0 L 341.0 749.0 L 326.0 710.0 Z
        M 507.0 672.0 L 530.0 714.0 L 551.0 744.0 L 486.0 758.0 L 540.0 828.0 L 466.0 836.0 L 439.0 802.0 L 420.0 770.0 L 483.0 755.0 L 465.0 725.0 L 447.0 683.0 Z
        M 304.0 561.0 L 364.0 544.0 L 369.0 621.0 L 427.0 606.0 L 436.0 648.0 L 448.0 682.0 L 386.0 696.0 L 375.0 664.0 L 368.0 623.0 L 309.0 638.0 L 304.0 603.0 Z
        M 546.0 406.0 L 580.0 397.0 L 619.0 401.0 L 655.0 419.0 L 676.0 438.0 L 689.0 455.0 L 737.0 455.0 L 761.0 427.0 L 788.0 409.0 L 817.0 400.0 L 850.0 400.0 L 876.0 408.0 L 898.0 422.0 L 917.0 442.0 L 930.0 465.0 L 939.0 498.0 L 938.0 538.0 L 926.0 578.0 L 909.0 610.0 L 887.0 640.0 L 843.0 687.0 L 782.0 741.0 L 716.0 793.0 L 705.0 794.0 L 694.0 788.0 L 575.0 686.0 L 525.0 632.0 L 496.0 586.0 L 481.0 538.0 L 480.0 499.0 L 489.0 465.0 L 504.0 439.0 L 524.0 419.0 Z" fill="#111214" fill-rule="evenodd"/>
  <path d="M 690.0 970.0 L 719.0 1079.0 L 746.0 1078.0 L 764.0 1015.0 L 766.0 1016.0 L 782.0 1079.0 L 810.0 1078.0 L 838.0 970.0 L 810.0 970.0 L 795.0 1039.0 L 793.0 1038.0 L 776.0 970.0 L 752.0 970.0 L 736.0 1037.0 L 734.0 1039.0 L 732.0 1038.0 L 719.0 970.0 Z
        M 979.0 969.0 L 962.0 977.0 L 954.0 985.0 L 947.0 997.0 L 942.0 1019.0 L 944.0 1045.0 L 951.0 1061.0 L 962.0 1073.0 L 983.0 1081.0 L 1010.0 1079.0 L 1022.0 1073.0 L 1030.0 1065.0 L 1036.0 1051.0 L 1012.0 1047.0 L 1003.0 1057.0 L 996.0 1059.0 L 985.0 1058.0 L 978.0 1054.0 L 972.0 1046.0 L 970.0 1033.0 L 974.0 1031.0 L 1037.0 1032.0 L 1037.0 1010.0 L 1035.0 1001.0 L 1026.0 983.0 L 1014.0 973.0 L 998.0 968.0 Z
        M 970.0 1008.0 L 973.0 1000.0 L 979.0 993.0 L 985.0 990.0 L 996.0 990.0 L 1001.0 992.0 L 1009.0 1001.0 L 1011.0 1013.0 L 971.0 1014.0 Z
        M 874.0 969.0 L 857.0 977.0 L 849.0 985.0 L 843.0 995.0 L 837.0 1021.0 L 840.0 1048.0 L 849.0 1065.0 L 856.0 1072.0 L 867.0 1078.0 L 878.0 1081.0 L 905.0 1079.0 L 917.0 1073.0 L 926.0 1064.0 L 931.0 1051.0 L 907.0 1047.0 L 898.0 1057.0 L 891.0 1059.0 L 881.0 1058.0 L 873.0 1054.0 L 867.0 1046.0 L 865.0 1033.0 L 873.0 1031.0 L 932.0 1032.0 L 933.0 1016.0 L 930.0 1000.0 L 922.0 984.0 L 909.0 973.0 L 893.0 968.0 Z
        M 865.0 1009.0 L 873.0 994.0 L 880.0 990.0 L 892.0 990.0 L 903.0 999.0 L 906.0 1013.0 L 866.0 1014.0 Z
        M 512.0 969.0 L 493.0 978.0 L 487.0 984.0 L 479.0 998.0 L 475.0 1013.0 L 476.0 1043.0 L 484.0 1062.0 L 498.0 1075.0 L 516.0 1081.0 L 535.0 1081.0 L 555.0 1073.0 L 564.0 1064.0 L 569.0 1051.0 L 545.0 1047.0 L 536.0 1057.0 L 528.0 1059.0 L 518.0 1058.0 L 512.0 1055.0 L 506.0 1048.0 L 502.0 1033.0 L 511.0 1031.0 L 570.0 1031.0 L 571.0 1018.0 L 569.0 1004.0 L 560.0 984.0 L 547.0 973.0 L 530.0 968.0 Z
        M 502.0 1012.0 L 508.0 997.0 L 519.0 990.0 L 530.0 990.0 L 537.0 994.0 L 544.0 1007.0 L 543.0 1014.0 L 503.0 1014.0 Z
        M 415.0 968.0 L 394.0 975.0 L 383.0 985.0 L 375.0 999.0 L 372.0 1010.0 L 371.0 1034.0 L 376.0 1053.0 L 389.0 1071.0 L 407.0 1080.0 L 429.0 1081.0 L 443.0 1077.0 L 456.0 1067.0 L 462.0 1058.0 L 466.0 1043.0 L 439.0 1041.0 L 437.0 1049.0 L 429.0 1056.0 L 417.0 1057.0 L 410.0 1054.0 L 405.0 1049.0 L 400.0 1037.0 L 399.0 1020.0 L 402.0 1006.0 L 409.0 996.0 L 420.0 992.0 L 431.0 995.0 L 437.0 1002.0 L 439.0 1009.0 L 465.0 1007.0 L 466.0 1005.0 L 459.0 986.0 L 449.0 976.0 L 433.0 969.0 Z
        M 288.0 975.0 L 276.0 988.0 L 272.0 1002.0 L 298.0 1005.0 L 303.0 994.0 L 308.0 991.0 L 319.0 990.0 L 329.0 996.0 L 331.0 1000.0 L 331.0 1012.0 L 298.0 1016.0 L 280.0 1023.0 L 272.0 1031.0 L 268.0 1041.0 L 268.0 1056.0 L 273.0 1068.0 L 280.0 1075.0 L 298.0 1081.0 L 320.0 1077.0 L 330.0 1068.0 L 332.0 1069.0 L 333.0 1079.0 L 358.0 1079.0 L 358.0 998.0 L 352.0 983.0 L 342.0 974.0 L 324.0 968.0 L 303.0 969.0 Z
        M 331.0 1030.0 L 331.0 1046.0 L 325.0 1055.0 L 315.0 1060.0 L 305.0 1060.0 L 297.0 1054.0 L 296.0 1042.0 L 301.0 1036.0 L 310.0 1032.0 Z
        M 1056.0 943.0 L 1056.0 969.0 L 1043.0 970.0 L 1043.0 992.0 L 1056.0 993.0 L 1056.0 1051.0 L 1059.0 1065.0 L 1066.0 1074.0 L 1076.0 1079.0 L 1091.0 1081.0 L 1106.0 1078.0 L 1104.0 1057.0 L 1091.0 1057.0 L 1085.0 1052.0 L 1084.0 993.0 L 1104.0 992.0 L 1104.0 970.0 L 1084.0 969.0 L 1084.0 943.0 Z
        M 151.0 928.0 L 150.0 1078.0 L 180.0 1079.0 L 180.0 1026.0 L 202.0 1025.0 L 228.0 1079.0 L 260.0 1079.0 L 232.0 1021.0 L 234.0 1017.0 L 247.0 1007.0 L 255.0 991.0 L 256.0 966.0 L 250.0 949.0 L 237.0 936.0 L 222.0 930.0 Z
        M 180.0 956.0 L 182.0 954.0 L 208.0 954.0 L 218.0 958.0 L 226.0 970.0 L 226.0 984.0 L 223.0 991.0 L 217.0 997.0 L 208.0 1000.0 L 181.0 1000.0 Z
        M 630.0 925.0 L 608.0 930.0 L 599.0 935.0 L 590.0 944.0 L 582.0 963.0 L 582.0 979.0 L 587.0 993.0 L 597.0 1004.0 L 607.0 1010.0 L 651.0 1026.0 L 658.0 1036.0 L 657.0 1045.0 L 655.0 1049.0 L 647.0 1055.0 L 630.0 1057.0 L 617.0 1052.0 L 611.0 1046.0 L 607.0 1035.0 L 579.0 1036.0 L 579.0 1042.0 L 586.0 1061.0 L 601.0 1075.0 L 623.0 1082.0 L 644.0 1082.0 L 668.0 1074.0 L 680.0 1063.0 L 685.0 1054.0 L 688.0 1042.0 L 686.0 1022.0 L 680.0 1011.0 L 667.0 1000.0 L 617.0 981.0 L 612.0 975.0 L 611.0 966.0 L 618.0 955.0 L 629.0 951.0 L 641.0 952.0 L 649.0 956.0 L 654.0 962.0 L 656.0 970.0 L 684.0 968.0 L 684.0 962.0 L 678.0 946.0 L 668.0 935.0 L 654.0 928.0 Z
        M 422.0 772.0 L 443.0 805.0 L 468.0 836.0 L 539.0 828.0 L 511.0 796.0 L 485.0 758.0 Z
        M 386.0 698.0 L 329.0 712.0 L 342.0 746.0 L 363.0 784.0 L 419.0 770.0 L 400.0 734.0 Z
        M 508.0 675.0 L 450.0 684.0 L 458.0 706.0 L 486.0 756.0 L 549.0 744.0 L 526.0 710.0 Z
        M 428.0 608.0 L 370.0 623.0 L 377.0 662.0 L 387.0 695.0 L 447.0 683.0 L 437.0 655.0 Z
        M 678.0 561.0 L 657.0 570.0 L 640.0 589.0 L 632.0 612.0 L 633.0 637.0 L 636.0 647.0 L 648.0 667.0 L 702.0 720.0 L 707.0 723.0 L 712.0 723.0 L 723.0 715.0 L 754.0 685.0 L 777.0 660.0 L 785.0 644.0 L 788.0 632.0 L 787.0 607.0 L 780.0 589.0 L 772.0 578.0 L 763.0 570.0 L 750.0 563.0 L 731.0 560.0 L 708.0 567.0 L 694.0 561.0 Z
        M 759.0 586.0 L 762.0 591.0 L 761.0 595.0 L 730.0 628.0 L 730.0 640.0 L 722.0 650.0 L 715.0 653.0 L 705.0 653.0 L 694.0 646.0 L 690.0 639.0 L 690.0 627.0 L 699.0 615.0 L 707.0 612.0 L 716.0 613.0 L 750.0 585.0 L 755.0 584.0 Z
        M 365.0 547.0 L 307.0 562.0 L 307.0 604.0 L 311.0 637.0 L 368.0 622.0 L 364.0 578.0 Z
        M 544.0 410.0 L 521.0 425.0 L 507.0 440.0 L 495.0 459.0 L 486.0 483.0 L 482.0 512.0 L 483.0 533.0 L 489.0 561.0 L 498.0 585.0 L 511.0 609.0 L 531.0 637.0 L 578.0 687.0 L 627.0 731.0 L 696.0 788.0 L 705.0 793.0 L 715.0 793.0 L 724.0 788.0 L 765.0 755.0 L 841.0 689.0 L 876.0 653.0 L 907.0 613.0 L 928.0 572.0 L 938.0 533.0 L 938.0 499.0 L 928.0 463.0 L 914.0 440.0 L 893.0 420.0 L 868.0 407.0 L 846.0 402.0 L 811.0 404.0 L 781.0 416.0 L 764.0 428.0 L 749.0 443.0 L 738.0 458.0 L 690.0 458.0 L 678.0 442.0 L 655.0 421.0 L 632.0 408.0 L 614.0 402.0 L 578.0 400.0 Z
        M 740.0 472.0 L 745.0 474.0 L 750.0 481.0 L 750.0 498.0 L 744.0 506.0 L 732.0 507.0 L 732.0 523.0 L 758.0 531.0 L 775.0 541.0 L 781.0 534.0 L 777.0 528.0 L 779.0 521.0 L 788.0 512.0 L 796.0 511.0 L 814.0 526.0 L 827.0 541.0 L 826.0 547.0 L 816.0 558.0 L 810.0 559.0 L 805.0 557.0 L 799.0 563.0 L 810.0 580.0 L 818.0 601.0 L 821.0 615.0 L 821.0 641.0 L 811.0 675.0 L 791.0 705.0 L 730.0 761.0 L 714.0 774.0 L 709.0 775.0 L 699.0 769.0 L 661.0 736.0 L 621.0 695.0 L 603.0 659.0 L 599.0 641.0 L 599.0 617.0 L 606.0 589.0 L 623.0 561.0 L 637.0 547.0 L 651.0 537.0 L 670.0 528.0 L 690.0 523.0 L 690.0 507.0 L 679.0 507.0 L 672.0 500.0 L 673.0 478.0 L 682.0 472.0 Z" fill="#fff1df" fill-rule="evenodd"/>
  <path d="M 901.0 621.0 L 875.0 654.0 L 828.0 701.0 L 720.0 791.0 L 712.0 794.0 L 705.0 794.0 L 698.0 791.0 L 657.0 758.0 L 590.0 700.0 L 551.0 661.0 L 551.0 826.0 L 776.0 826.0 L 900.0 706.0 Z
        M 758.0 587.0 L 755.0 585.0 L 749.0 586.0 L 716.0 613.0 L 704.0 613.0 L 698.0 616.0 L 693.0 621.0 L 690.0 629.0 L 694.0 644.0 L 700.0 649.0 L 707.0 651.0 L 720.0 648.0 L 727.0 639.0 L 727.0 627.0 L 759.0 593.0 Z
        M 680.0 473.0 L 673.0 479.0 L 672.0 496.0 L 674.0 501.0 L 678.0 504.0 L 691.0 505.0 L 691.0 523.0 L 655.0 535.0 L 636.0 548.0 L 623.0 561.0 L 612.0 577.0 L 603.0 599.0 L 599.0 623.0 L 600.0 642.0 L 607.0 668.0 L 615.0 684.0 L 629.0 703.0 L 704.0 771.0 L 711.0 772.0 L 752.0 738.0 L 790.0 702.0 L 803.0 684.0 L 811.0 668.0 L 818.0 642.0 L 818.0 612.0 L 811.0 587.0 L 796.0 562.0 L 804.0 554.0 L 808.0 556.0 L 815.0 555.0 L 823.0 547.0 L 824.0 539.0 L 795.0 512.0 L 788.0 512.0 L 779.0 521.0 L 778.0 528.0 L 781.0 534.0 L 774.0 542.0 L 755.0 531.0 L 731.0 524.0 L 729.0 522.0 L 729.0 506.0 L 731.0 504.0 L 741.0 504.0 L 745.0 502.0 L 747.0 498.0 L 747.0 480.0 L 741.0 473.0 Z
        M 673.0 559.0 L 693.0 558.0 L 707.0 564.0 L 725.0 558.0 L 741.0 558.0 L 751.0 561.0 L 763.0 568.0 L 776.0 581.0 L 785.0 597.0 L 788.0 607.0 L 789.0 630.0 L 785.0 645.0 L 779.0 657.0 L 762.0 677.0 L 724.0 714.0 L 711.0 724.0 L 704.0 723.0 L 648.0 669.0 L 639.0 657.0 L 630.0 634.0 L 630.0 608.0 L 638.0 587.0 L 655.0 568.0 Z
        M 551.0 363.0 L 551.0 404.0 L 580.0 397.0 L 606.0 398.0 L 628.0 404.0 L 646.0 413.0 L 666.0 428.0 L 689.0 455.0 L 737.0 455.0 L 747.0 441.0 L 771.0 419.0 L 795.0 406.0 L 817.0 400.0 L 842.0 399.0 L 863.0 403.0 L 882.0 411.0 L 901.0 425.0 L 901.0 364.0 L 767.0 363.0 L 745.0 374.0 L 718.0 394.0 L 707.0 382.0 L 684.0 363.0 Z" fill="#111214" fill-rule="evenodd"/>
</svg>
